<?xml version="1.0" encoding="UTF-8"?><svg id="a" xmlns="http://www.w3.org/2000/svg" xmlns:xlink="http://www.w3.org/1999/xlink" viewBox="0 0 256 256"><defs><style>.e{fill:url(#c);}.e,.f,.g,.h,.i,.j{stroke-width:0px;}.f{fill:#000;}.g{fill:url(#b);}.h{fill:#80808e;}.i{fill:url(#d);}.j{fill:#fafafa;}</style><linearGradient id="b" x1="124.1465" y1="196.0828" x2="169.8374" y2="150.3919" gradientUnits="userSpaceOnUse"><stop offset=".1" stop-color="#fff" stop-opacity=".02"/><stop offset=".9" stop-color="#fff" stop-opacity=".1"/></linearGradient><linearGradient id="c" x1="86.1828" y1="105.5476" x2="131.8334" y2="59.897" xlink:href="#b"/><linearGradient id="d" x1="77.0281" y1="178.9719" x2="178.9719" y2="77.0281" xlink:href="#b"/></defs><polyline class="j" points="223.2089 57.9309 223.2089 254.4105 32.7912 254.4105 32.7912 1.59 166.8681 1.59"/><path class="h" d="M223.2086,256H32.7914c-.8777,0-1.5898-.7121-1.5898-1.5898V1.5898c0-.8777.7121-1.5898,1.5898-1.5898h134.0771c.8777,0,1.5898.7121,1.5898,1.5898s-.7121,1.5898-1.5898,1.5898H34.3812v249.6409h187.2376V57.9309c0-.8777.7121-1.5898,1.5898-1.5898s1.5898.7121,1.5898,1.5898v196.4793c0,.8777-.7121,1.5898-1.5898,1.5898Z"/><polygon class="j" points="223.2089 57.9304 166.8681 57.9304 166.8681 1.5896 223.2089 57.9304"/><path class="h" d="M223.2086,59.5203h-56.3401c-.8777,0-1.5898-.7121-1.5898-1.5898V1.5893c0-.6427.3871-1.2224.9812-1.4687.5941-.2453,1.2772-.1097,1.7326.3447l56.3401,56.3411c.4544.4544.591,1.1385.3447,1.7326s-.8259.9812-1.4687.9812ZM168.4583,56.3407h50.9125L168.4583,5.4272v50.9135Z"/><path class="f" d="M182.998,169.4848c-.1258,7.5392-6.434,13.5152-13.9743,13.5152h-56.6783c-2.2041,0-3.7002-2.2405-2.8556-4.2763l.0192-.0463c3.727-8.9985,9.7745-16.5916,17.4967-22.1309.9605-.689,2.1196-1.0464,3.3017-1.0464h38.9425c7.6721,0,13.8765,6.2833,13.748,13.9848Z"/><path class="f" d="M143.6545,73c2.2041,0,3.7002,2.2405,2.8556,4.2764l-.0192.0463c-3.727,8.9986-9.7745,16.5916-17.4967,22.1309-.9605.689-2.1196,1.0464-3.3017,1.0464h-38.7162c-7.5403,0-13.8486-5.976-13.9743-13.5152-.1285-7.7015,6.0759-13.9848,13.748-13.9848h56.9045Z"/><path class="f" d="M86.7474,183c-1.7536,0-3.5352-.3373-5.256-1.0501-7.0155-2.9058-10.3471-10.9488-7.4413-17.964,4.4692-10.7893,10.8749-20.462,19.0398-28.7491,8.4583-8.5854,18.4334-15.2937,29.6484-19.9392,15.4154-6.3856,27.4215-18.3914,33.8063-33.8063,2.9058-7.0158,10.949-10.3468,17.964-7.4413,7.0155,2.9058,10.3471,10.9488,7.4413,17.964-4.4692,10.7893-10.8749,20.462-19.0398,28.7491-8.4583,8.5854-18.4334,15.2937-29.6484,19.9392-15.4154,6.3856-27.4215,18.3914-33.8063,33.8063-2.1931,5.2947-7.3132,8.4914-12.7079,8.4914Z"/><path class="g" d="M182.998,169.4848c-.1258,7.5392-6.434,13.5152-13.9743,13.5152h-56.6783c-2.2041,0-3.7002-2.2405-2.8556-4.2763l.0192-.0463c3.727-8.9985,9.7745-16.5916,17.4967-22.1309.9605-.689,2.1196-1.0464,3.3017-1.0464h38.9425c7.6721,0,13.8765,6.2833,13.748,13.9848Z"/><path class="e" d="M143.6545,73c2.2041,0,3.7002,2.2405,2.8556,4.2764l-.0192.0463c-3.727,8.9986-9.7745,16.5916-17.4967,22.1309-.9605.689-2.1196,1.0464-3.3017,1.0464h-38.7162c-7.5403,0-13.8486-5.976-13.9743-13.5152-.1285-7.7015,6.0759-13.9848,13.748-13.9848h56.9045Z"/><path class="i" d="M86.7474,183c-1.7536,0-3.5352-.3373-5.256-1.0501-7.0155-2.9058-10.3471-10.9488-7.4413-17.964,4.4692-10.7893,10.8749-20.462,19.0398-28.7491,8.4583-8.5854,18.4334-15.2937,29.6484-19.9392,15.4154-6.3856,27.4215-18.3914,33.8063-33.8063,2.9058-7.0158,10.949-10.3468,17.964-7.4413,7.0155,2.9058,10.3471,10.9488,7.4413,17.964-4.4692,10.7893-10.8749,20.462-19.0398,28.7491-8.4583,8.5854-18.4334,15.2937-29.6484,19.9392-15.4154,6.3856-27.4215,18.3914-33.8063,33.8063-2.1931,5.2947-7.3132,8.4914-12.7079,8.4914Z"/></svg>