<?xml version="1.0" encoding="UTF-8"?><svg id="a" xmlns="http://www.w3.org/2000/svg" viewBox="0 0 256 256"><defs><style>.b{fill:#bf0000;}.b,.c,.d,.e,.f,.g{stroke-width:0px;}.c{fill:#80808e;}.d{fill:red;}.e{fill:#cfcfd8;}.f{fill:#fafafa;}.g{fill:#fff;}</style></defs><polyline class="f" points="223.2086 57.9307 223.2086 254.4104 32.7909 254.4104 32.7909 1.5899 166.8678 1.5899"/><path class="c" d="M223.2086,256H32.7904c-.8777,0-1.5898-.7121-1.5898-1.5898V1.5898c0-.8777.7121-1.5898,1.5898-1.5898h134.0771c.8777,0,1.5898.7121,1.5898,1.5898s-.7121,1.5898-1.5898,1.5898H34.3802v249.6409h187.2387V57.9309c0-.8777.7121-1.5898,1.5898-1.5898s1.5898.7121,1.5898,1.5898v196.4793c0,.8777-.7121,1.5898-1.5898,1.5898Z"/><polygon class="f" points="223.2086 57.9307 166.8678 57.9307 166.8678 1.5899 223.2086 57.9307"/><path class="c" d="M223.2086,59.5207h-56.3411c-.8777,0-1.5898-.7121-1.5898-1.5898V1.5898c0-.6427.3871-1.2224.9812-1.4687.5941-.2453,1.2772-.1097,1.7326.3447l56.3411,56.3411c.4544.4544.591,1.1385.3447,1.7326s-.8259.9812-1.4687.9812ZM168.4573,56.3411h50.9135L168.4573,5.4276v50.9135Z"/><path class="e" d="M175.3053,154.7679c-.1082,6.4847-5.5341,11.6249-12.0198,11.6249h-48.7508c-1.8958,0-3.1827-1.9271-2.4562-3.6782l.0165-.0399c3.2057-7.7399,8.4074-14.271,15.0495-19.0355.8262-.5926,1.8231-.9001,2.8399-.9001h33.4957c6.599,0,11.9356,5.4045,11.8251,12.0288Z"/><path class="e" d="M141.4647,71.7782c1.8958,0,3.1827,1.9272,2.4562,3.6782l-.0165.0398c-3.2057,7.74-8.4074,14.271-15.0495,19.0355-.8262.5926-1.8231.9001-2.8399.9001h-33.3011c-6.4856,0-11.9116-5.1401-12.0198-11.6249-.1105-6.6243,5.2261-12.0288,11.8251-12.0288h48.9454Z"/><path class="e" d="M92.5171,166.3927c-1.5083,0-3.0407-.2902-4.5209-.9032-6.0343-2.4994-8.8998-9.4174-6.4005-15.4514,3.8441-9.2802,9.3539-17.6,16.3768-24.728,7.2753-7.3845,15.8551-13.1546,25.5016-17.1503,13.2593-5.4924,23.5861-15.8191,29.0779-29.0779,2.4994-6.0345,9.4176-8.8996,15.4514-6.4005,6.0343,2.4994,8.8998,9.4174,6.4005,15.4514-3.8441,9.2802-9.3539,17.6-16.3768,24.728-7.2753,7.3845-15.8551,13.1546-25.5016,17.1503-13.2593,5.4924-23.5861,15.8191-29.0779,29.0779-1.8863,4.5541-6.2903,7.3037-10.9305,7.3037Z"/><rect class="d" x="23.5196" y="138.1629" width="208.9602" height="102.3406"/><path class="b" d="M232.4803,242.0935H23.5197c-.8777,0-1.5898-.7121-1.5898-1.5898v-102.3404c0-.8777.7121-1.5898,1.5898-1.5898h208.9606c.8777,0,1.5898.7121,1.5898,1.5898v102.3404c0,.8777-.7121,1.5898-1.5898,1.5898ZM25.1095,238.9139h205.781v-99.1608H25.1095v99.1608Z"/><path class="g" d="M48.5342,221.1891v-62.2594h24.5641c4.7217,0,8.7449.8963,12.0683,2.69,3.3234,1.7937,5.8623,4.2767,7.6157,7.448,1.7523,3.1723,2.63,6.8249,2.63,10.9598s-.8922,7.7823-2.6755,10.9432c-1.7833,3.162-4.3626,5.6243-7.7367,7.3879-3.3752,1.7626-7.4532,2.6445-12.236,2.6445h-15.6567v-10.5489h13.5277c2.5337,0,4.6265-.4409,6.2784-1.3228,1.6509-.8808,2.8877-2.1073,3.7085-3.6784.8208-1.5701,1.2317-3.3783,1.2317-5.4256,0-2.068-.4109-3.8761-1.2317-5.4266s-2.0628-2.7562-3.724-3.6184c-1.6622-.8611-3.7695-1.2917-6.3229-1.2917h-8.8773v51.4983h-13.1633Z"/><path class="g" d="M126.0549,221.1891h-22.0707v-62.2594h22.2529c6.2629,0,11.6533,1.241,16.1732,3.724,4.5189,2.482,8.0007,6.0445,10.4423,10.6855,2.4426,4.641,3.664,10.1939,3.664,16.6596,0,6.4854-1.2213,12.0579-3.664,16.7197-2.4416,4.6617-5.9379,8.2387-10.4878,10.7311-4.5499,2.4934-9.9869,3.7395-16.3098,3.7395ZM117.1476,209.9105h8.3598c3.8917,0,7.1696-.6935,9.8347-2.0825,2.6652-1.388,4.671-3.546,6.0197-6.4751,1.3476-2.9281,2.0214-6.7131,2.0214-11.3541,0-4.6006-.6738-8.3609-2.0214-11.2786-1.3486-2.9187-3.3493-5.0664-6.0041-6.445-2.6559-1.3786-5.9286-2.068-9.8192-2.068h-8.3909v39.7032Z"/><path class="g" d="M166.2426,221.1891v-62.2594h41.2226v10.8522h-28.0593v14.8359h25.3238v10.8522h-25.3238v25.7191h-13.1633Z"/></svg>