<?xml version="1.0" encoding="UTF-8"?><svg id="a" xmlns="http://www.w3.org/2000/svg" xmlns:xlink="http://www.w3.org/1999/xlink" viewBox="0 0 256 256"><defs><style>.d{fill:url(#c);}.d,.e,.f,.g{stroke-width:0px;}.e{fill:#000;}.h{stroke-miterlimit:10;}.h,.i{fill:none;stroke:#fff;stroke-linecap:round;stroke-width:12px;}.f{fill:url(#b);}.i{stroke-linejoin:round;}.g{fill:#fff;}</style><linearGradient id="b" x1="7570.6726" y1="-1190.6385" x2="7670.6726" y2="-1190.6385" gradientTransform="translate(1396.638 7826.6726) rotate(-90)" gradientUnits="userSpaceOnUse"><stop offset=".1" stop-color="#fff" stop-opacity=".02"/><stop offset=".9" stop-color="#fff" stop-opacity=".1"/></linearGradient><linearGradient id="c" x1="128" y1="256" x2="128" y2="0" gradientTransform="matrix(1,0,0,1,0,0)" xlink:href="#b"/></defs><circle class="e" cx="205.9996" cy="206" r="50"/><circle class="f" cx="205.9996" cy="206" r="50"/><path class="e" d="M256,58.3999v103.0103c-12.26-13.75-30.1201-22.4102-50-22.4102-21.78,0-41.1401,10.3999-53.3801,26.5-7.98,10.51-12.9299,23.4399-13.55,37.5-.0498,1-.0698,2-.0698,3,0,19.8801,8.6599,37.74,22.4099,50H58.3999c-32.25,0-58.3999-26.1399-58.3999-58.3999V58.3999C0,26.1499,26.1499,0,58.3999,0h139.2002c32.25,0,58.3999,26.1499,58.3999,58.3999Z"/><path class="d" d="M256,58.3999v103.0103c-12.26-13.75-30.1201-22.4102-50-22.4102-21.78,0-41.1401,10.3999-53.3801,26.5-7.98,10.51-12.9299,23.4399-13.55,37.5-.0498,1-.0698,2-.0698,3,0,19.8801,8.6599,37.74,22.4099,50H58.3999c-32.25,0-58.3999-26.1399-58.3999-58.3999V58.3999C0,26.1499,26.1499,0,58.3999,0h139.2002c32.25,0,58.3999,26.1499,58.3999,58.3999Z"/><path class="g" d="M131.1499,165.5h21.47c-7.98,10.51-12.9299,23.4399-13.55,37.5h-32.4199c-3,0-5.04-3.0498-3.8899-5.8301l.02-.0598c5.0898-12.27,13.3298-22.6301,23.8599-30.1799,1.3101-.9402,2.8901-1.4302,4.51-1.4302Z"/><path class="g" d="M149.3466,53.004c3.0056,0,5.0458,3.0553,3.894,5.8314l-.0262.0631c-5.0822,12.2708-13.3289,22.6249-23.8591,30.1785-1.3098.9396-2.8903,1.427-4.5023,1.427h-52.7949c-10.2822,0-18.8844-8.149-19.0559-18.4298-.1752-10.5021,8.2853-19.0702,18.7473-19.0702h77.5971Z"/><path class="g" d="M71.7461,203.004c-2.3913,0-4.8207-.46-7.1673-1.4319-9.5666-3.9624-14.1096-14.9301-10.1472-24.4964,6.0943-14.7127,14.8294-27.9027,25.9634-39.2034,11.5341-11.7073,25.1364-20.8551,40.4297-27.1898,21.021-8.7076,37.393-25.0792,46.0995-46.0995,3.9624-9.567,14.9305-14.1093,24.4964-10.1472,9.5666,3.9624,14.1096,14.9301,10.1472,24.4964-6.0943,14.7127-14.8294,27.9027-25.9634,39.2034-11.5341,11.7073-25.1364,20.8551-40.4297,27.1898-21.021,8.7076-37.393,25.0792-46.0995,46.0995-2.9905,7.22-9.9725,11.5791-17.329,11.5791Z"/><line class="h" x1="205.9996" y1="179.7248" x2="205.9996" y2="232.2833"/><polyline class="i" points="226.4114 211.8714 205.9996 232.2833 185.5877 211.8714"/></svg>