<?xml version="1.0" encoding="UTF-8"?><svg id="e" xmlns="http://www.w3.org/2000/svg" viewBox="0 0 48 48"><defs><style>.f{fill:#000;stroke-width:0px;}</style></defs><path class="f" d="M47.9976,42.1013c-.0549,3.2896-2.8074,5.8972-6.0975,5.8972h-22.606c-1.149,0-1.8734-1.2394-1.3057-2.2383,1.4979-2.6355,4.4239-6.9457,8.7582-9.3735.4512-.2527.9591-.3874,1.4762-.3874h13.776c3.3476,0,6.0548,2.7416,5.9988,6.1021Z"/><path class="f" d="M30.0116,2.2398c-1.4979,2.6355-4.4239,6.9457-8.7582,9.3735-.4512.2527-.9591.3874-1.4762.3874H6.0999c-3.2901,0-6.0426-2.6075-6.0975-5.8972C-.0537,2.7431,2.6535.0015,6.0012.0015h22.7047c1.149,0,1.8734,1.2394,1.3057,2.2383Z"/><path class="f" d="M5.9988,48c-.7652,0-1.5426-.1472-2.2936-.4582-3.0613-1.268-4.5151-4.7776-3.2471-7.8389,1.9502-4.7081,4.7454-8.9289,8.3083-12.5451,3.6909-3.7463,8.0437-6.6736,12.9375-8.7007,6.7267-2.7864,11.9658-8.0254,14.7519-14.7519,1.268-3.0613,4.7778-4.5148,7.8389-3.2471,3.0613,1.268,4.5151,4.7776,3.2471,7.8389-1.9502,4.7081-4.7454,8.9289-8.3083,12.5451-3.6909,3.7463-8.0437,6.6736-12.9375,8.7007-6.7267,2.7864-11.9658,8.0254-14.7519,14.7519-.957,2.3104-3.1912,3.7053-5.5453,3.7053Z"/></svg>