<?xml version="1.0" encoding="UTF-8"?><svg id="b" xmlns="http://www.w3.org/2000/svg" viewBox="0 0 48 48"><defs><style>.f{fill:#000;stroke-width:0px;}</style></defs><path class="f" d="M47.9991,42.1025c-.0549,3.2898-2.8076,5.8975-6.0979,5.8975h-24.7323c-.9618,0-1.6146-.9777-1.2461-1.866l.0084-.0202c1.6263-3.9266,4.2652-7.24,7.6349-9.6571.4191-.3007.9249-.4566,1.4407-.4566h16.9931c3.3478,0,6.0552,2.7418,5.9991,6.1025Z"/><path class="f" d="M30.8311,0c.9618,0,1.6146.9777,1.2461,1.866l-.0084.0202c-1.6263,3.9266-4.2652,7.24-7.6349,9.6571-.4191.3007-.9249.4566-1.4407.4566H6.0987c-3.2903,0-6.043-2.6077-6.0979-5.8975C-.0552,2.7418,2.6522,0,6,0h24.8311Z"/><path class="f" d="M5.9989,48c-.7652,0-1.5426-.1472-2.2935-.4582-3.0613-1.268-4.5151-4.7776-3.2471-7.8388,1.9502-4.7081,4.7454-8.9289,8.3083-12.5451,3.6909-3.7463,8.0437-6.6736,12.9375-8.7007,6.7267-2.7864,11.9658-8.0254,14.7518-14.7518,1.268-3.0614,4.7778-4.515,7.8388-3.2471,3.0613,1.268,4.5151,4.7776,3.2471,7.8388-1.9502,4.7081-4.7454,8.9289-8.3083,12.5451-3.6909,3.7463-8.0437,6.6736-12.9375,8.7007-6.7267,2.7864-11.9658,8.0254-14.7518,14.7518-.957,2.3104-3.1912,3.7053-5.5453,3.7053Z"/></svg>