<?xml version="1.0" encoding="UTF-8"?><svg id="b" xmlns="http://www.w3.org/2000/svg" viewBox="0 0 48 48"><defs><style>.f{fill:#000;stroke-width:0px;}</style></defs><path class="f" d="M40.318,32.6394h-16.4346c.9696-.5853,1.9891-1.1031,3.0551-1.5446,4.7152-1.9531,8.9096-4.7744,12.4671-8.3854,3.4332-3.4847,6.1268-7.5514,8.0055-12.0874.7852-1.895.7852-3.9822.0003-5.8772s-2.2608-3.3708-4.1558-4.1555C42.2735.1822,41.2398-.0117,40.2079.0032H7.6818C5.6066.0032,3.6623.818,2.2067,2.2979.7517,3.7774-.0306,5.7359.0038,7.8124c.0696,4.1624,3.5543,7.549,7.7676,7.549h16.3456c-.9698.5854-1.9895,1.1033-3.0556,1.5449-4.7152,1.9534-8.9096,4.7744-12.4668,8.3852-3.4332,3.4844-6.1268,7.5511-8.006,12.0877-.7847,1.8947-.7847,3.9819.0003,5.8769s2.2611,3.3708,4.1555,4.1555c.9383.389,1.9264.5861,2.9367.5861h32.5477c4.2134,0,7.698-3.3865,7.7676-7.549.0344-2.0766-.7479-4.035-2.2029-5.5146-1.4556-1.4798-3.3999-2.2947-5.4754-2.2947ZM4.4827,7.7378c-.0144-.866.3114-1.6825.9178-2.2989.6066-.6165,1.4166-.9562,2.2813-.9562h25.657c-.0397.0869-.0795.1736-.1163.2624-.9406,2.271-2.2252,4.3319-3.7896,6.1369H7.7714c-1.7843,0-3.2596-1.4105-3.2887-3.1442ZM6.4587,43.2731c-.7895-.3269-1.4044-.9418-1.7315-1.7313s-.3272-1.6593-.0003-2.4485c1.6574-4.0006,4.0321-7.5866,7.0586-10.6582,3.134-3.1812,6.8317-5.6679,10.9899-7.3903,6.6512-2.7549,11.8312-7.9348,14.5858-14.5858.3269-.7895.9418-1.4044,1.7313-1.7313.3932-.163.8062-.2444,1.2189-.245h.0081c.414.0003.8276.0817,1.2217.245.7895.3269,1.4044.9418,1.7315,1.7313.3269.7895.3269,1.659-.0003,2.4488-1.6569,4.0003-4.0315,7.586-7.0581,10.658-3.1346,3.1818-6.832,5.6681-10.9902,7.3903-6.6512,2.7554-11.8309,7.9353-14.5852,14.5855-.4975,1.2007-1.6585,1.9766-2.9581,1.9766-.4189,0-.8298-.0824-1.2223-.245ZM40.2287,43.5181H14.6573c.04-.0875.0832-.1729.1203-.2624.9406-2.271,2.2253-4.3319,3.7897-6.1369h21.7508c.8647,0,1.675.3397,2.2816.9564.6063.6162.9322,1.4326.9178,2.2987-.0291,1.7337-1.5044,3.1442-3.2887,3.1442Z"/></svg>