<?xml version="1.0" encoding="UTF-8"?><svg id="a" xmlns="http://www.w3.org/2000/svg" xmlns:xlink="http://www.w3.org/1999/xlink" viewBox="0 0 256 256"><defs><style>.c{fill:#70a0ff;}.c,.d{stroke-width:0px;}.d{fill:url(#b);}.e{fill:none;stroke:#fff;stroke-linejoin:round;stroke-width:14px;}</style><linearGradient id="b" x1="128" y1="256" x2="128" y2="0" gradientUnits="userSpaceOnUse"><stop offset=".1" stop-color="#fff" stop-opacity="0"/><stop offset=".9" stop-color="#fff" stop-opacity=".1"/></linearGradient></defs><rect class="c" width="256" height="256" rx="58.4" ry="58.4"/><rect class="d" width="256" height="256" rx="58.4" ry="58.4"/><path class="e" d="M106.8534,162h72.1466c9.4855,0,17.1564,7.7684,16.9976,17.2903-.1555,9.3212-7.9548,16.7097-17.2773,16.7097h-101.7234"/><path class="e" d="M148.1148,94h-70.8351c-9.3225,0-17.1219-7.3885-17.2773-16.7097-.1588-9.5219,7.512-17.2903,16.9976-17.2903h102.0042"/><path class="e" d="M76.9968,196c-2.1681,0-4.3708-.4171-6.4984-1.2983-8.6737-3.5926-12.7927-13.5366-9.2001-22.21,5.5255-13.3395,13.4453-25.2984,23.5401-35.5444,10.4576-10.6146,22.7904-18.9086,36.6562-24.652,19.0591-7.8949,33.903-22.7385,41.7968-41.7969,3.5926-8.6741,13.537-12.7924,22.21-9.2001,8.6737,3.5926,12.7927,13.5366,9.2001,22.21-5.5255,13.3395-13.4453,25.2984-23.5401,35.5444-10.4576,10.6146-22.7904,18.9086-36.6562,24.652-19.0591,7.8949-33.903,22.7385-41.7968,41.7969-2.7114,6.5461-9.0417,10.4984-15.7116,10.4984Z"/></svg>