<svg width="281" height="64" viewBox="0 0 281 64" fill="none" xmlns="http://www.w3.org/2000/svg">
<path fill-rule="evenodd" clip-rule="evenodd" d="M32 44.3077C38.7974 44.3077 44.3077 38.7974 44.3077 32C44.3077 25.2027 38.7974 19.6923 32 19.6923C25.2027 19.6923 19.6923 25.2027 19.6923 32C19.6923 38.7974 25.2027 44.3077 32 44.3077ZM41.8462 32C41.8462 37.4379 37.4379 41.8462 32 41.8462C26.5621 41.8462 22.1538 37.4379 22.1538 32C22.1538 26.5621 26.5621 22.1538 32 22.1538C37.4379 22.1538 41.8462 26.5621 41.8462 32Z" fill="#F2F0E3"/>
<path fill-rule="evenodd" clip-rule="evenodd" d="M53.3333 32C53.3333 43.7821 43.7821 53.3333 32 53.3333C20.2179 53.3333 10.6667 43.7821 10.6667 32C10.6667 20.2179 20.2179 10.6667 32 10.6667C43.7821 10.6667 53.3333 20.2179 53.3333 32ZM32 49.2308C41.5163 49.2308 49.2308 41.5163 49.2308 32C49.2308 22.4837 41.5163 14.7692 32 14.7692C22.4837 14.7692 14.7692 22.4837 14.7692 32C14.7692 41.5163 22.4837 49.2308 32 49.2308Z" fill="#F2F0E3"/>
<path fill-rule="evenodd" clip-rule="evenodd" d="M64 32C64 49.6731 49.6731 64 32 64C14.3269 64 0 49.6731 0 32C0 14.3269 14.3269 0 32 0C49.6731 0 64 14.3269 64 32ZM32 58.2564C46.501 58.2564 58.2564 46.501 58.2564 32C58.2564 17.499 46.501 5.74359 32 5.74359C17.499 5.74359 5.74359 17.499 5.74359 32C5.74359 46.501 17.499 58.2564 32 58.2564Z" fill="#F2F0E3"/>
<path d="M267.981 44V34.496V25.208H271.905L271.725 32.228H272.301C272.469 30.5 272.781 29.084 273.237 27.98C273.693 26.876 274.305 26.06 275.073 25.532C275.841 25.004 276.777 24.74 277.881 24.74C278.169 24.74 278.469 24.776 278.781 24.848C279.117 24.896 279.465 24.98 279.825 25.1L279.609 29.996C279.225 29.804 278.817 29.672 278.385 29.6C277.977 29.504 277.593 29.456 277.233 29.456C276.321 29.456 275.541 29.72 274.893 30.248C274.245 30.752 273.717 31.484 273.309 32.444C272.925 33.404 272.673 34.556 272.553 35.9V44H267.981Z" fill="#F2F0E3"/>
<path d="M257.521 44.468C255.961 44.468 254.593 44.252 253.417 43.82C252.241 43.364 251.257 42.716 250.465 41.876C249.673 41.036 249.073 40.028 248.665 38.852C248.257 37.676 248.053 36.368 248.053 34.928C248.053 33.488 248.245 32.144 248.629 30.896C249.037 29.648 249.625 28.568 250.393 27.656C251.161 26.72 252.109 26 253.237 25.496C254.389 24.968 255.697 24.704 257.161 24.704C258.577 24.704 259.825 24.944 260.905 25.424C261.985 25.88 262.885 26.564 263.605 27.476C264.325 28.388 264.841 29.504 265.153 30.824C265.489 32.12 265.597 33.596 265.477 35.252L250.969 35.432V32.768L262.525 32.624L261.265 34.136C261.385 32.84 261.277 31.772 260.941 30.932C260.629 30.068 260.149 29.42 259.501 28.988C258.853 28.556 258.085 28.34 257.197 28.34C256.189 28.34 255.325 28.604 254.605 29.132C253.909 29.636 253.369 30.368 252.985 31.328C252.625 32.288 252.445 33.44 252.445 34.784C252.445 36.896 252.889 38.468 253.777 39.5C254.665 40.532 255.925 41.048 257.557 41.048C258.277 41.048 258.877 40.952 259.357 40.76C259.861 40.544 260.269 40.28 260.581 39.968C260.917 39.632 261.169 39.26 261.337 38.852C261.529 38.444 261.649 38.024 261.697 37.592L265.765 38.24C265.645 39.128 265.393 39.956 265.009 40.724C264.625 41.468 264.097 42.128 263.425 42.704C262.753 43.256 261.925 43.688 260.941 44C259.981 44.312 258.841 44.468 257.521 44.468Z" fill="#F2F0E3"/>
<path d="M238.431 44.468C237.159 44.468 236.007 44.336 234.975 44.072C233.967 43.832 233.091 43.472 232.347 42.992C231.603 42.488 231.027 41.864 230.619 41.12C230.211 40.352 229.983 39.476 229.935 38.492L233.679 37.52C233.703 38.24 233.919 38.876 234.327 39.428C234.735 39.956 235.299 40.364 236.019 40.652C236.763 40.94 237.651 41.084 238.683 41.084C239.835 41.084 240.735 40.904 241.383 40.544C242.055 40.16 242.391 39.62 242.391 38.924C242.391 38.396 242.211 37.988 241.851 37.7C241.515 37.412 241.011 37.172 240.339 36.98C239.667 36.764 238.851 36.56 237.891 36.368C236.931 36.152 235.995 35.912 235.083 35.648C234.171 35.384 233.343 35.048 232.599 34.64C231.879 34.232 231.303 33.692 230.871 33.02C230.439 32.348 230.223 31.508 230.223 30.5C230.223 29.324 230.535 28.304 231.159 27.44C231.783 26.576 232.671 25.904 233.823 25.424C234.999 24.944 236.403 24.704 238.035 24.704C239.547 24.704 240.879 24.932 242.031 25.388C243.207 25.82 244.143 26.48 244.839 27.368C245.559 28.232 245.955 29.3 246.027 30.572L242.211 31.508C242.187 30.764 241.995 30.152 241.635 29.672C241.275 29.168 240.771 28.784 240.123 28.52C239.499 28.256 238.767 28.124 237.927 28.124C236.847 28.124 235.995 28.328 235.371 28.736C234.771 29.12 234.471 29.636 234.471 30.284C234.471 30.812 234.663 31.232 235.047 31.544C235.431 31.856 235.971 32.108 236.667 32.3C237.363 32.492 238.179 32.684 239.115 32.876C240.027 33.068 240.927 33.284 241.815 33.524C242.703 33.764 243.507 34.088 244.227 34.496C244.971 34.904 245.559 35.444 245.991 36.116C246.423 36.788 246.639 37.652 246.639 38.708C246.639 39.908 246.315 40.952 245.667 41.84C245.019 42.704 244.083 43.364 242.859 43.82C241.635 44.252 240.159 44.468 238.431 44.468Z" fill="#F2F0E3"/>
<path d="M205.73 44L200.906 25.208H205.694L208.682 40.256H209.186L212.534 25.208H217.934L221.282 40.256H221.75L224.81 25.208H229.418L224.63 44H218.402L215.342 29.348H214.91L211.886 44H205.73Z" fill="#F2F0E3"/>
<path d="M191.184 44.468C189.36 44.468 187.74 44.096 186.324 43.352C184.932 42.608 183.828 41.504 183.012 40.04C182.22 38.552 181.824 36.728 181.824 34.568C181.824 32.336 182.232 30.5 183.048 29.06C183.864 27.596 184.968 26.504 186.36 25.784C187.776 25.064 189.372 24.704 191.148 24.704C192.972 24.704 194.58 25.076 195.972 25.82C197.388 26.564 198.492 27.668 199.284 29.132C200.1 30.596 200.508 32.432 200.508 34.64C200.508 36.872 200.1 38.72 199.284 40.184C198.468 41.624 197.352 42.704 195.936 43.424C194.52 44.12 192.936 44.468 191.184 44.468ZM191.292 41.012C191.916 41.012 192.504 40.904 193.056 40.688C193.632 40.448 194.124 40.088 194.532 39.608C194.964 39.128 195.3 38.492 195.54 37.7C195.78 36.908 195.9 35.96 195.9 34.856C195.9 33.704 195.768 32.72 195.504 31.904C195.24 31.064 194.88 30.38 194.424 29.852C193.992 29.324 193.476 28.94 192.876 28.7C192.3 28.46 191.676 28.34 191.004 28.34C190.404 28.34 189.828 28.46 189.276 28.7C188.724 28.916 188.232 29.264 187.8 29.744C187.368 30.224 187.032 30.86 186.792 31.652C186.552 32.444 186.432 33.392 186.432 34.496C186.432 35.648 186.552 36.644 186.792 37.484C187.056 38.3 187.416 38.972 187.872 39.5C188.328 40.004 188.844 40.388 189.42 40.652C189.996 40.892 190.62 41.012 191.292 41.012Z" fill="#F2F0E3"/>
<path d="M169.53 44V34.496V25.208H173.454L173.274 32.228H173.85C174.018 30.5 174.33 29.084 174.786 27.98C175.242 26.876 175.854 26.06 176.622 25.532C177.39 25.004 178.326 24.74 179.43 24.74C179.718 24.74 180.018 24.776 180.33 24.848C180.666 24.896 181.014 24.98 181.374 25.1L181.158 29.996C180.774 29.804 180.366 29.672 179.934 29.6C179.526 29.504 179.142 29.456 178.782 29.456C177.87 29.456 177.09 29.72 176.442 30.248C175.794 30.752 175.266 31.484 174.858 32.444C174.474 33.404 174.222 34.556 174.102 35.9V44H169.53Z" fill="#F2F0E3"/>
<path d="M159.575 44.468C158.399 44.468 157.379 44.228 156.515 43.748C155.651 43.268 154.943 42.584 154.391 41.696C153.863 40.784 153.479 39.68 153.239 38.384H152.699L152.807 44H148.883V35.324V18.692H153.455V24.452C153.455 25.076 153.419 25.748 153.347 26.468C153.275 27.164 153.179 27.896 153.059 28.664C152.963 29.408 152.843 30.188 152.699 31.004H153.275C153.563 29.708 153.971 28.592 154.499 27.656C155.027 26.72 155.723 26 156.587 25.496C157.451 24.992 158.483 24.74 159.683 24.74C161.195 24.74 162.503 25.136 163.607 25.928C164.735 26.72 165.599 27.848 166.199 29.312C166.823 30.776 167.135 32.54 167.135 34.604C167.135 36.692 166.823 38.468 166.199 39.932C165.575 41.396 164.699 42.524 163.571 43.316C162.443 44.084 161.111 44.468 159.575 44.468ZM158.135 40.724C159.023 40.724 159.779 40.472 160.403 39.968C161.051 39.464 161.543 38.756 161.879 37.844C162.239 36.932 162.419 35.876 162.419 34.676C162.419 33.476 162.251 32.42 161.915 31.508C161.579 30.572 161.099 29.84 160.475 29.312C159.851 28.784 159.083 28.52 158.171 28.52C157.547 28.52 156.983 28.64 156.479 28.88C155.975 29.12 155.531 29.444 155.147 29.852C154.787 30.26 154.475 30.728 154.211 31.256C153.947 31.76 153.743 32.288 153.599 32.84C153.479 33.368 153.419 33.896 153.419 34.424V34.892C153.419 35.564 153.515 36.248 153.707 36.944C153.923 37.616 154.223 38.24 154.607 38.816C155.015 39.392 155.507 39.86 156.083 40.22C156.683 40.556 157.367 40.724 158.135 40.724Z" fill="#F2F0E3"/>
<path d="M121.547 44V33.092V25.208H125.435L125.255 31.832H125.795C126.059 30.104 126.479 28.724 127.055 27.692C127.655 26.636 128.399 25.88 129.287 25.424C130.175 24.944 131.207 24.704 132.383 24.704C133.463 24.704 134.375 24.896 135.119 25.28C135.863 25.64 136.475 26.144 136.955 26.792C137.435 27.416 137.807 28.124 138.071 28.916C138.359 29.708 138.551 30.536 138.647 31.4C138.743 32.264 138.791 33.104 138.791 33.92V44H134.255V34.46C134.255 33.956 134.219 33.38 134.147 32.732C134.099 32.06 133.967 31.412 133.751 30.788C133.535 30.164 133.199 29.648 132.743 29.24C132.287 28.832 131.639 28.628 130.799 28.628C129.791 28.628 128.939 28.952 128.243 29.6C127.571 30.224 127.043 31.124 126.659 32.3C126.299 33.452 126.119 34.808 126.119 36.368V44H121.547Z" fill="#F2F0E3"/>
<path d="M111.086 44.468C109.526 44.468 108.158 44.252 106.982 43.82C105.806 43.364 104.822 42.716 104.03 41.876C103.238 41.036 102.638 40.028 102.23 38.852C101.822 37.676 101.618 36.368 101.618 34.928C101.618 33.488 101.81 32.144 102.194 30.896C102.602 29.648 103.19 28.568 103.958 27.656C104.726 26.72 105.674 26 106.802 25.496C107.954 24.968 109.262 24.704 110.726 24.704C112.142 24.704 113.39 24.944 114.47 25.424C115.55 25.88 116.45 26.564 117.17 27.476C117.89 28.388 118.406 29.504 118.718 30.824C119.054 32.12 119.162 33.596 119.042 35.252L104.534 35.432V32.768L116.09 32.624L114.83 34.136C114.95 32.84 114.842 31.772 114.506 30.932C114.194 30.068 113.714 29.42 113.066 28.988C112.418 28.556 111.65 28.34 110.762 28.34C109.754 28.34 108.89 28.604 108.17 29.132C107.474 29.636 106.934 30.368 106.55 31.328C106.19 32.288 106.01 33.44 106.01 34.784C106.01 36.896 106.454 38.468 107.342 39.5C108.23 40.532 109.49 41.048 111.122 41.048C111.842 41.048 112.442 40.952 112.922 40.76C113.426 40.544 113.834 40.28 114.146 39.968C114.482 39.632 114.734 39.26 114.902 38.852C115.094 38.444 115.214 38.024 115.262 37.592L119.33 38.24C119.21 39.128 118.958 39.956 118.574 40.724C118.19 41.468 117.662 42.128 116.99 42.704C116.318 43.256 115.49 43.688 114.506 44C113.546 44.312 112.406 44.468 111.086 44.468Z" fill="#F2F0E3"/>
<path d="M85.08 44V40.112L94.944 29.312V28.916H85.26V25.208H100.632V29.024L90.696 39.896V40.256H100.74V44H85.08Z" fill="#F2F0E3"/>
</svg>
