<svg width="54" height="21" viewBox="0 0 54 21" fill="none" xmlns="http://www.w3.org/2000/svg">
<path d="M36.5469 20V9.09198V1.20798H40.4349L40.2549 7.83198H40.7949C41.0589 6.10398 41.4789 4.72398 42.0549 3.69198C42.6549 2.63598 43.3989 1.87998 44.2869 1.42398C45.1749 0.943979 46.2069 0.703979 47.3829 0.703979C48.4629 0.703979 49.3749 0.895979 50.1189 1.27998C50.8629 1.63998 51.4749 2.14398 51.9549 2.79198C52.4349 3.41598 52.8069 4.12398 53.0709 4.91598C53.3589 5.70798 53.5509 6.53598 53.6469 7.39998C53.7429 8.26398 53.7909 9.10398 53.7909 9.91998V20H49.2549V10.46C49.2549 9.95598 49.2189 9.37998 49.1469 8.73198C49.0989 8.05998 48.9669 7.41198 48.7509 6.78798C48.5349 6.16398 48.1989 5.64798 47.7429 5.23998C47.2869 4.83198 46.6389 4.62798 45.7989 4.62798C44.7909 4.62798 43.9389 4.95198 43.2429 5.59998C42.5709 6.22398 42.0429 7.12398 41.6589 8.29998C41.2989 9.45198 41.1189 10.808 41.1189 12.368V20H36.5469Z" fill="#F76F53"/>
<path d="M26.0863 20.468C24.5263 20.468 23.1583 20.252 21.9823 19.82C20.8063 19.364 19.8223 18.716 19.0303 17.876C18.2383 17.036 17.6383 16.028 17.2303 14.852C16.8223 13.676 16.6183 12.368 16.6183 10.928C16.6183 9.48798 16.8103 8.14398 17.1943 6.89598C17.6023 5.64798 18.1903 4.56798 18.9583 3.65598C19.7263 2.71998 20.6743 1.99998 21.8023 1.49598C22.9543 0.96798 24.2623 0.703979 25.7263 0.703979C27.1423 0.703979 28.3903 0.943979 29.4703 1.42398C30.5503 1.87998 31.4503 2.56398 32.1703 3.47598C32.8903 4.38798 33.4063 5.50398 33.7183 6.82398C34.0543 8.11998 34.1624 9.59598 34.0424 11.252L19.5343 11.432V8.76798L31.0903 8.62398L29.8303 10.136C29.9503 8.83998 29.8423 7.77198 29.5063 6.93198C29.1943 6.06798 28.7143 5.41998 28.0663 4.98798C27.4183 4.55598 26.6503 4.33998 25.7623 4.33998C24.7543 4.33998 23.8903 4.60398 23.1703 5.13198C22.4743 5.63598 21.9343 6.36798 21.5503 7.32798C21.1903 8.28798 21.0103 9.43998 21.0103 10.784C21.0103 12.896 21.4543 14.468 22.3423 15.5C23.2303 16.532 24.4903 17.048 26.1223 17.048C26.8423 17.048 27.4423 16.952 27.9223 16.76C28.4263 16.544 28.8343 16.28 29.1463 15.968C29.4823 15.632 29.7343 15.26 29.9023 14.852C30.0943 14.444 30.2143 14.024 30.2623 13.592L34.3303 14.24C34.2103 15.128 33.9583 15.956 33.5743 16.724C33.1903 17.468 32.6623 18.128 31.9903 18.704C31.3183 19.256 30.4903 19.688 29.5063 20C28.5463 20.312 27.4063 20.468 26.0863 20.468Z" fill="#F76F53"/>
<path d="M0.0800018 20V16.112L9.944 5.31201V4.91601H0.260002V1.20801H15.632V5.02401L5.696 15.896V16.256H15.74V20H0.0800018Z" fill="#F76F53"/>
</svg>
