<svg width="195" height="58" viewBox="0 0 195 58" fill="none" xmlns="http://www.w3.org/2000/svg">
<path d="M182.901 25.308V15.804V6.51597H186.825L186.645 13.536H187.221C187.389 11.808 187.701 10.392 188.157 9.28797C188.613 8.18397 189.225 7.36797 189.993 6.83997C190.761 6.31197 191.697 6.04797 192.801 6.04797C193.089 6.04797 193.389 6.08397 193.701 6.15597C194.037 6.20397 194.385 6.28797 194.745 6.40797L194.529 11.304C194.145 11.112 193.737 10.98 193.305 10.908C192.897 10.812 192.513 10.764 192.153 10.764C191.241 10.764 190.461 11.028 189.813 11.556C189.165 12.06 188.637 12.792 188.229 13.752C187.845 14.712 187.593 15.864 187.473 17.208V25.308H182.901Z" fill="#F2F0E3"/>
<path d="M172.441 25.776C170.881 25.776 169.513 25.56 168.337 25.128C167.161 24.672 166.177 24.024 165.385 23.184C164.593 22.344 163.993 21.336 163.585 20.16C163.177 18.984 162.973 17.676 162.973 16.236C162.973 14.796 163.165 13.452 163.549 12.204C163.957 10.956 164.545 9.87602 165.313 8.96402C166.081 8.02802 167.029 7.30802 168.157 6.80402C169.309 6.27602 170.617 6.01202 172.081 6.01202C173.497 6.01202 174.745 6.25202 175.825 6.73202C176.905 7.18802 177.805 7.87202 178.525 8.78402C179.245 9.69602 179.761 10.812 180.073 12.132C180.409 13.428 180.517 14.904 180.397 16.56L165.889 16.74V14.076L177.445 13.932L176.185 15.444C176.305 14.148 176.197 13.08 175.861 12.24C175.549 11.376 175.069 10.728 174.421 10.296C173.773 9.86402 173.005 9.64802 172.117 9.64802C171.109 9.64802 170.245 9.91202 169.525 10.44C168.829 10.944 168.289 11.676 167.905 12.636C167.545 13.596 167.365 14.748 167.365 16.092C167.365 18.204 167.809 19.776 168.697 20.808C169.585 21.84 170.845 22.356 172.477 22.356C173.197 22.356 173.797 22.26 174.277 22.068C174.781 21.852 175.189 21.588 175.501 21.276C175.837 20.94 176.089 20.568 176.257 20.16C176.449 19.752 176.569 19.332 176.617 18.9L180.685 19.548C180.565 20.436 180.313 21.264 179.929 22.032C179.545 22.776 179.017 23.436 178.345 24.012C177.673 24.564 176.845 24.996 175.861 25.308C174.901 25.62 173.761 25.776 172.441 25.776Z" fill="#F2F0E3"/>
<path d="M153.351 25.776C152.079 25.776 150.927 25.644 149.895 25.38C148.887 25.14 148.011 24.78 147.267 24.3C146.523 23.796 145.947 23.172 145.539 22.428C145.131 21.66 144.903 20.784 144.855 19.8L148.599 18.828C148.623 19.548 148.839 20.184 149.247 20.736C149.655 21.264 150.219 21.672 150.939 21.96C151.683 22.248 152.571 22.392 153.603 22.392C154.755 22.392 155.655 22.212 156.303 21.852C156.975 21.468 157.311 20.928 157.311 20.232C157.311 19.704 157.131 19.296 156.771 19.008C156.435 18.72 155.931 18.48 155.259 18.288C154.587 18.072 153.771 17.868 152.811 17.676C151.851 17.46 150.915 17.22 150.003 16.956C149.091 16.692 148.263 16.356 147.519 15.948C146.799 15.54 146.223 15 145.791 14.328C145.359 13.656 145.143 12.816 145.143 11.808C145.143 10.632 145.455 9.61202 146.079 8.74802C146.703 7.88402 147.591 7.21202 148.743 6.73202C149.919 6.25202 151.323 6.01202 152.955 6.01202C154.467 6.01202 155.799 6.24002 156.951 6.69602C158.127 7.12802 159.063 7.78802 159.759 8.67602C160.479 9.54002 160.875 10.608 160.947 11.88L157.131 12.816C157.107 12.072 156.915 11.46 156.555 10.98C156.195 10.476 155.691 10.092 155.043 9.82802C154.419 9.56402 153.687 9.43202 152.847 9.43202C151.767 9.43202 150.915 9.63602 150.291 10.044C149.691 10.428 149.391 10.944 149.391 11.592C149.391 12.12 149.583 12.54 149.967 12.852C150.351 13.164 150.891 13.416 151.587 13.608C152.283 13.8 153.099 13.992 154.035 14.184C154.947 14.376 155.847 14.592 156.735 14.832C157.623 15.072 158.427 15.396 159.147 15.804C159.891 16.212 160.479 16.752 160.911 17.424C161.343 18.096 161.559 18.96 161.559 20.016C161.559 21.216 161.235 22.26 160.587 23.148C159.939 24.012 159.003 24.672 157.779 25.128C156.555 25.56 155.079 25.776 153.351 25.776Z" fill="#F2F0E3"/>
<path d="M120.65 25.308L115.826 6.51599H120.614L123.602 21.564H124.106L127.454 6.51599H132.854L136.202 21.564H136.67L139.73 6.51599H144.338L139.55 25.308H133.322L130.262 10.656H129.83L126.806 25.308H120.65Z" fill="#F2F0E3"/>
<path d="M106.104 25.776C104.28 25.776 102.66 25.404 101.244 24.66C99.8518 23.916 98.7478 22.812 97.9318 21.348C97.1398 19.86 96.7438 18.036 96.7438 15.876C96.7438 13.644 97.1518 11.808 97.9678 10.368C98.7838 8.90402 99.8878 7.81202 101.28 7.09202C102.696 6.37202 104.292 6.01202 106.068 6.01202C107.892 6.01202 109.5 6.38402 110.892 7.12802C112.308 7.87202 113.412 8.97602 114.204 10.44C115.02 11.904 115.428 13.74 115.428 15.948C115.428 18.18 115.02 20.028 114.204 21.492C113.388 22.932 112.272 24.012 110.856 24.732C109.44 25.428 107.856 25.776 106.104 25.776ZM106.212 22.32C106.836 22.32 107.424 22.212 107.976 21.996C108.552 21.756 109.044 21.396 109.452 20.916C109.884 20.436 110.22 19.8 110.46 19.008C110.7 18.216 110.82 17.268 110.82 16.164C110.82 15.012 110.688 14.028 110.424 13.212C110.16 12.372 109.8 11.688 109.344 11.16C108.912 10.632 108.396 10.248 107.796 10.008C107.22 9.76802 106.596 9.64802 105.924 9.64802C105.324 9.64802 104.748 9.76802 104.196 10.008C103.644 10.224 103.152 10.572 102.72 11.052C102.288 11.532 101.952 12.168 101.712 12.96C101.472 13.752 101.352 14.7 101.352 15.804C101.352 16.956 101.472 17.952 101.712 18.792C101.976 19.608 102.336 20.28 102.792 20.808C103.248 21.312 103.764 21.696 104.34 21.96C104.916 22.2 105.54 22.32 106.212 22.32Z" fill="#F2F0E3"/>
<path d="M84.4495 25.308V15.804V6.51597H88.3735L88.1935 13.536H88.7695C88.9375 11.808 89.2495 10.392 89.7055 9.28797C90.1615 8.18397 90.7735 7.36797 91.5415 6.83997C92.3095 6.31197 93.2455 6.04797 94.3495 6.04797C94.6375 6.04797 94.9375 6.08397 95.2495 6.15597C95.5855 6.20397 95.9335 6.28797 96.2935 6.40797L96.0775 11.304C95.6935 11.112 95.2855 10.98 94.8535 10.908C94.4455 10.812 94.0615 10.764 93.7015 10.764C92.7895 10.764 92.0095 11.028 91.3615 11.556C90.7135 12.06 90.1855 12.792 89.7775 13.752C89.3935 14.712 89.1415 15.864 89.0215 17.208V25.308H84.4495Z" fill="#F2F0E3"/>
<path d="M74.495 25.776C73.319 25.776 72.299 25.536 71.435 25.056C70.571 24.576 69.863 23.892 69.311 23.004C68.783 22.092 68.399 20.988 68.159 19.692H67.619L67.727 25.308H63.803V16.632V0H68.375V5.76C68.375 6.384 68.339 7.056 68.267 7.776C68.195 8.472 68.099 9.204 67.979 9.972C67.883 10.716 67.763 11.496 67.619 12.312H68.195C68.483 11.016 68.891 9.9 69.419 8.964C69.947 8.028 70.643 7.308 71.507 6.804C72.371 6.3 73.403 6.048 74.603 6.048C76.115 6.048 77.423 6.444 78.527 7.236C79.655 8.028 80.519 9.156 81.119 10.62C81.743 12.084 82.055 13.848 82.055 15.912C82.055 18 81.743 19.776 81.119 21.24C80.495 22.704 79.619 23.832 78.491 24.624C77.363 25.392 76.031 25.776 74.495 25.776ZM73.055 22.032C73.943 22.032 74.699 21.78 75.323 21.276C75.971 20.772 76.463 20.064 76.799 19.152C77.159 18.24 77.339 17.184 77.339 15.984C77.339 14.784 77.171 13.728 76.835 12.816C76.499 11.88 76.019 11.148 75.395 10.62C74.771 10.092 74.003 9.828 73.091 9.828C72.467 9.828 71.903 9.948 71.399 10.188C70.895 10.428 70.451 10.752 70.067 11.16C69.707 11.568 69.395 12.036 69.131 12.564C68.867 13.068 68.663 13.596 68.519 14.148C68.399 14.676 68.339 15.204 68.339 15.732V16.2C68.339 16.872 68.435 17.556 68.627 18.252C68.843 18.924 69.143 19.548 69.527 20.124C69.935 20.7 70.427 21.168 71.003 21.528C71.603 21.864 72.287 22.032 73.055 22.032Z" fill="#F2F0E3"/>
<path d="M36.4669 25.308V14.4V6.51602H40.3549L40.1749 13.14H40.7149C40.9789 11.412 41.3989 10.032 41.9749 9.00002C42.5749 7.94402 43.3189 7.18802 44.2069 6.73202C45.0949 6.25202 46.1269 6.01202 47.3029 6.01202C48.3829 6.01202 49.2949 6.20402 50.0389 6.58802C50.7829 6.94802 51.3949 7.45202 51.8749 8.10002C52.3549 8.72402 52.7269 9.43202 52.9909 10.224C53.2789 11.016 53.4709 11.844 53.5669 12.708C53.6629 13.572 53.7109 14.412 53.7109 15.228V25.308H49.1749V15.768C49.1749 15.264 49.1389 14.688 49.0669 14.04C49.0189 13.368 48.8869 12.72 48.6709 12.096C48.4549 11.472 48.1189 10.956 47.6629 10.548C47.2069 10.14 46.5589 9.93602 45.7189 9.93602C44.7109 9.93602 43.8589 10.26 43.1629 10.908C42.4909 11.532 41.9629 12.432 41.5789 13.608C41.2189 14.76 41.0389 16.116 41.0389 17.676V25.308H36.4669Z" fill="#F2F0E3"/>
<path d="M26.0063 25.776C24.4463 25.776 23.0783 25.56 21.9023 25.128C20.7263 24.672 19.7423 24.024 18.9503 23.184C18.1583 22.344 17.5583 21.336 17.1503 20.16C16.7423 18.984 16.5383 17.676 16.5383 16.236C16.5383 14.796 16.7303 13.452 17.1143 12.204C17.5223 10.956 18.1103 9.87602 18.8783 8.96402C19.6463 8.02802 20.5943 7.30802 21.7223 6.80402C22.8743 6.27602 24.1823 6.01202 25.6463 6.01202C27.0623 6.01202 28.3103 6.25202 29.3903 6.73202C30.4703 7.18802 31.3703 7.87202 32.0903 8.78402C32.8103 9.69602 33.3263 10.812 33.6383 12.132C33.9743 13.428 34.0823 14.904 33.9623 16.56L19.4543 16.74V14.076L31.0103 13.932L29.7503 15.444C29.8703 14.148 29.7623 13.08 29.4263 12.24C29.1143 11.376 28.6343 10.728 27.9863 10.296C27.3383 9.86402 26.5703 9.64802 25.6823 9.64802C24.6743 9.64802 23.8103 9.91202 23.0903 10.44C22.3943 10.944 21.8543 11.676 21.4703 12.636C21.1103 13.596 20.9303 14.748 20.9303 16.092C20.9303 18.204 21.3743 19.776 22.2623 20.808C23.1503 21.84 24.4103 22.356 26.0423 22.356C26.7623 22.356 27.3623 22.26 27.8423 22.068C28.3463 21.852 28.7543 21.588 29.0663 21.276C29.4023 20.94 29.6543 20.568 29.8223 20.16C30.0143 19.752 30.1343 19.332 30.1823 18.9L34.2503 19.548C34.1303 20.436 33.8783 21.264 33.4943 22.032C33.1103 22.776 32.5823 23.436 31.9103 24.012C31.2383 24.564 30.4103 24.996 29.4263 25.308C28.4663 25.62 27.3263 25.776 26.0063 25.776Z" fill="#F2F0E3"/>
<path d="M0 25.308V21.42L9.864 10.62V10.224H0.18V6.51599H15.552V10.332L5.616 21.204V21.564H15.66V25.308H0Z" fill="#F2F0E3"/>
<rect y="35" width="85.605" height="22.214" fill="#F2F0E3"/>
<path d="M8.76754 50.5016V41.2616H11.0355V50.5016H8.76754ZM6.07954 43.1376V41.2616H13.7515V43.1376H6.07954ZM17.7208 50.5016L15.7048 41.2616H18.1688L19.3868 48.5976H19.5408L21.0668 41.2616H23.9088L25.4628 48.5976H25.6168L26.8348 41.2616H29.1588L27.1288 50.5016H23.9928L22.5228 43.1796H22.3828L20.9268 50.5016H17.7208ZM31.5244 50.5016V41.2616H33.8204V50.5016H31.5244ZM36.8827 50.5016V41.2616H39.1367V50.5016H36.8827ZM37.2887 50.5016V48.6116H42.9027V50.5016H37.2887ZM45.1258 50.5016V41.2616H47.4218V50.5016H45.1258ZM54.152 50.6976C53.396 50.6976 52.7147 50.525 52.108 50.1796C51.5014 49.8343 51.0207 49.3163 50.666 48.6256C50.3207 47.9256 50.148 47.0483 50.148 45.9936C50.148 45.219 50.246 44.5283 50.442 43.9216C50.6474 43.315 50.9507 42.8016 51.352 42.3816C51.7534 41.9523 52.2434 41.6256 52.822 41.4016C53.41 41.1776 54.0867 41.0656 54.852 41.0656C55.4307 41.0656 55.9534 41.131 56.42 41.2616C56.896 41.3923 57.3067 41.579 57.652 41.8216C57.9974 42.0643 58.2634 42.3536 58.45 42.6896C58.646 43.0256 58.7487 43.4036 58.758 43.8236L56.63 44.4816C56.6207 44.1363 56.532 43.847 56.364 43.6136C56.196 43.3803 55.972 43.203 55.692 43.0816C55.412 42.951 55.0994 42.8856 54.754 42.8856C54.2687 42.8856 53.858 42.9976 53.522 43.2216C53.1954 43.4363 52.9434 43.7676 52.766 44.2156C52.598 44.6636 52.514 45.2236 52.514 45.8956C52.514 46.3996 52.5607 46.843 52.654 47.2256C52.7567 47.599 52.906 47.9116 53.102 48.1636C53.298 48.4156 53.536 48.607 53.816 48.7376C54.1054 48.859 54.446 48.9196 54.838 48.9196C55.23 48.9196 55.566 48.859 55.846 48.7376C56.1354 48.6163 56.364 48.4296 56.532 48.1776C56.7 47.9256 56.7887 47.6036 56.798 47.2116H55.16V45.6156H59.038V47.4076V50.5016H57.498L57.47 48.1916H57.19C57.0314 48.733 56.826 49.1903 56.574 49.5636C56.322 49.937 56 50.2216 55.608 50.4176C55.216 50.6043 54.7307 50.6976 54.152 50.6976ZM67.8233 50.5016V41.2616H70.0773V50.5016H67.8233ZM61.8033 50.5016V41.2616H64.0573V50.5016H61.8033ZM63.1753 46.7496V44.9296H68.7333V46.7496H63.1753ZM75.0958 50.5016V41.2616H77.3638V50.5016H75.0958ZM72.4078 43.1376V41.2616H80.0798V43.1376H72.4078Z" fill="#537CF7"/>
</svg>
