<svg width="147" height="20" viewBox="0 0 147 20" fill="none" xmlns="http://www.w3.org/2000/svg">
<path d="M36.4669 19.296V8.388V0.504H40.3549L40.1749 7.128H40.7149C40.9789 5.4 41.3989 4.02 41.9749 2.988C42.5749 1.932 43.3189 1.176 44.2069 0.719999C45.0949 0.24 46.1269 0 47.3029 0C48.3829 0 49.2949 0.192 50.0389 0.575999C50.7829 0.936 51.3949 1.44 51.8749 2.088C52.3549 2.712 52.7269 3.42 52.9909 4.212C53.2789 5.004 53.4709 5.832 53.5669 6.696C53.6629 7.56 53.7109 8.4 53.7109 9.216V19.296H49.1749V9.756C49.1749 9.252 49.1389 8.676 49.0669 8.028C49.0189 7.356 48.8869 6.708 48.6709 6.084C48.4549 5.46 48.1189 4.944 47.6629 4.536C47.2069 4.128 46.5589 3.924 45.7189 3.924C44.7109 3.924 43.8589 4.248 43.1629 4.896C42.4909 5.52 41.9629 6.42 41.5789 7.596C41.2189 8.748 41.0389 10.104 41.0389 11.664V19.296H36.4669Z" fill="#F2F0E3"/>
<path d="M26.0063 19.764C24.4463 19.764 23.0783 19.548 21.9023 19.116C20.7263 18.66 19.7423 18.012 18.9503 17.172C18.1583 16.332 17.5583 15.324 17.1503 14.148C16.7423 12.972 16.5383 11.664 16.5383 10.224C16.5383 8.784 16.7303 7.44 17.1143 6.192C17.5223 4.944 18.1103 3.864 18.8783 2.952C19.6463 2.016 20.5943 1.296 21.7223 0.792001C22.8743 0.264 24.1823 0 25.6463 0C27.0623 0 28.3103 0.24 29.3903 0.719999C30.4703 1.176 31.3703 1.86 32.0903 2.772C32.8103 3.684 33.3263 4.8 33.6383 6.12C33.9743 7.416 34.0823 8.892 33.9623 10.548L19.4543 10.728V8.064L31.0103 7.92L29.7503 9.432C29.8703 8.136 29.7623 7.068 29.4263 6.228C29.1143 5.364 28.6343 4.716 27.9863 4.284C27.3383 3.852 26.5703 3.636 25.6823 3.636C24.6743 3.636 23.8103 3.9 23.0903 4.428C22.3943 4.932 21.8543 5.664 21.4703 6.624C21.1103 7.584 20.9303 8.736 20.9303 10.08C20.9303 12.192 21.3743 13.764 22.2623 14.796C23.1503 15.828 24.4103 16.344 26.0423 16.344C26.7623 16.344 27.3623 16.248 27.8423 16.056C28.3463 15.84 28.7543 15.576 29.0663 15.264C29.4023 14.928 29.6543 14.556 29.8223 14.148C30.0143 13.74 30.1343 13.32 30.1823 12.888L34.2503 13.536C34.1303 14.424 33.8783 15.252 33.4943 16.02C33.1103 16.764 32.5823 17.424 31.9103 18C31.2383 18.552 30.4103 18.984 29.4263 19.296C28.4663 19.608 27.3263 19.764 26.0063 19.764Z" fill="#F2F0E3"/>
<path d="M0 19.296V15.408L9.864 4.60797V4.21197H0.18V0.503967H15.552V4.31997L5.616 15.192V15.552H15.66V19.296H0Z" fill="#F2F0E3"/>
<rect x="68.9634" width="77.0732" height="20" fill="#F2F0E3"/>
<path d="M78.3389 13.8536V5.93364H80.2829V13.8536H78.3389ZM76.0349 7.54164V5.93364H82.6109V7.54164H76.0349ZM86.0131 13.8536L84.2851 5.93364H86.3971L87.4411 12.2216H87.5731L88.8811 5.93364H91.3171L92.6491 12.2216H92.7811L93.8251 5.93364H95.8171L94.0771 13.8536H91.3891L90.1291 7.57764H90.0091L88.7611 13.8536H86.0131ZM97.8448 13.8536V5.93364H99.8128V13.8536H97.8448ZM102.438 13.8536V5.93364H104.37V13.8536H102.438ZM102.786 13.8536V12.2336H107.598V13.8536H102.786ZM109.503 13.8536V5.93364H111.471V13.8536H109.503ZM117.24 14.0216C116.592 14.0216 116.008 13.8736 115.488 13.5776C114.968 13.2816 114.556 12.8376 114.252 12.2456C113.956 11.6456 113.808 10.8936 113.808 9.98964C113.808 9.32564 113.892 8.73364 114.06 8.21364C114.236 7.69364 114.496 7.25364 114.84 6.89364C115.184 6.52564 115.604 6.24564 116.1 6.05364C116.604 5.86164 117.184 5.76564 117.84 5.76564C118.336 5.76564 118.784 5.82164 119.184 5.93364C119.592 6.04564 119.944 6.20564 120.24 6.41364C120.536 6.62164 120.764 6.86964 120.924 7.15764C121.092 7.44564 121.18 7.76964 121.188 8.12964L119.364 8.69364C119.356 8.39764 119.28 8.14964 119.136 7.94964C118.992 7.74964 118.8 7.59764 118.56 7.49364C118.32 7.38164 118.052 7.32564 117.756 7.32564C117.34 7.32564 116.988 7.42164 116.7 7.61364C116.42 7.79764 116.204 8.08164 116.052 8.46564C115.908 8.84964 115.836 9.32964 115.836 9.90564C115.836 10.3376 115.876 10.7176 115.956 11.0456C116.044 11.3656 116.172 11.6336 116.34 11.8496C116.508 12.0656 116.712 12.2296 116.952 12.3416C117.2 12.4456 117.492 12.4976 117.828 12.4976C118.164 12.4976 118.452 12.4456 118.692 12.3416C118.94 12.2376 119.136 12.0776 119.28 11.8616C119.424 11.6456 119.5 11.3696 119.508 11.0336H118.104V9.66564H121.428V11.2016V13.8536H120.108L120.084 11.8736H119.844C119.708 12.3376 119.532 12.7296 119.316 13.0496C119.1 13.3696 118.824 13.6136 118.488 13.7816C118.152 13.9416 117.736 14.0216 117.24 14.0216ZM128.958 13.8536V5.93364H130.89V13.8536H128.958ZM123.798 13.8536V5.93364H125.73V13.8536H123.798ZM124.974 10.6376V9.07764H129.738V10.6376H124.974ZM135.192 13.8536V5.93364H137.136V13.8536H135.192ZM132.888 7.54164V5.93364H139.464V7.54164H132.888Z" fill="#537CF7"/>
</svg>
