<svg width="224" height="64" viewBox="0 0 224 64" fill="none" xmlns="http://www.w3.org/2000/svg">
<path d="M197.901 44.308V34.804V25.516H201.825L201.645 32.536H202.221C202.389 30.808 202.701 29.392 203.157 28.288C203.613 27.184 204.225 26.368 204.993 25.84C205.761 25.312 206.697 25.048 207.801 25.048C208.089 25.048 208.389 25.084 208.701 25.156C209.037 25.204 209.385 25.288 209.745 25.408L209.529 30.304C209.145 30.112 208.737 29.98 208.305 29.908C207.897 29.812 207.513 29.764 207.153 29.764C206.241 29.764 205.461 30.028 204.813 30.556C204.165 31.06 203.637 31.792 203.229 32.752C202.845 33.712 202.593 34.864 202.473 36.208V44.308H197.901Z" fill="white"/>
<path d="M187.441 44.776C185.881 44.776 184.513 44.56 183.337 44.128C182.161 43.672 181.177 43.024 180.385 42.184C179.593 41.344 178.993 40.336 178.585 39.16C178.177 37.984 177.973 36.676 177.973 35.236C177.973 33.796 178.165 32.452 178.549 31.204C178.957 29.956 179.545 28.876 180.313 27.964C181.081 27.028 182.029 26.308 183.157 25.804C184.309 25.276 185.617 25.012 187.081 25.012C188.497 25.012 189.745 25.252 190.825 25.732C191.905 26.188 192.805 26.872 193.525 27.784C194.245 28.696 194.761 29.812 195.073 31.132C195.409 32.428 195.517 33.904 195.397 35.56L180.889 35.74V33.076L192.445 32.932L191.185 34.444C191.305 33.148 191.197 32.08 190.861 31.24C190.549 30.376 190.069 29.728 189.421 29.296C188.773 28.864 188.005 28.648 187.117 28.648C186.109 28.648 185.245 28.912 184.525 29.44C183.829 29.944 183.289 30.676 182.905 31.636C182.545 32.596 182.365 33.748 182.365 35.092C182.365 37.204 182.809 38.776 183.697 39.808C184.585 40.84 185.845 41.356 187.477 41.356C188.197 41.356 188.797 41.26 189.277 41.068C189.781 40.852 190.189 40.588 190.501 40.276C190.837 39.94 191.089 39.568 191.257 39.16C191.449 38.752 191.569 38.332 191.617 37.9L195.685 38.548C195.565 39.436 195.313 40.264 194.929 41.032C194.545 41.776 194.017 42.436 193.345 43.012C192.673 43.564 191.845 43.996 190.861 44.308C189.901 44.62 188.761 44.776 187.441 44.776Z" fill="white"/>
<path d="M168.351 44.776C167.079 44.776 165.927 44.644 164.895 44.38C163.887 44.14 163.011 43.78 162.267 43.3C161.523 42.796 160.947 42.172 160.539 41.428C160.131 40.66 159.903 39.784 159.855 38.8L163.599 37.828C163.623 38.548 163.839 39.184 164.247 39.736C164.655 40.264 165.219 40.672 165.939 40.96C166.683 41.248 167.571 41.392 168.603 41.392C169.755 41.392 170.655 41.212 171.303 40.852C171.975 40.468 172.311 39.928 172.311 39.232C172.311 38.704 172.131 38.296 171.771 38.008C171.435 37.72 170.931 37.48 170.259 37.288C169.587 37.072 168.771 36.868 167.811 36.676C166.851 36.46 165.915 36.22 165.003 35.956C164.091 35.692 163.263 35.356 162.519 34.948C161.799 34.54 161.223 34 160.791 33.328C160.359 32.656 160.143 31.816 160.143 30.808C160.143 29.632 160.455 28.612 161.079 27.748C161.703 26.884 162.591 26.212 163.743 25.732C164.919 25.252 166.323 25.012 167.955 25.012C169.467 25.012 170.799 25.24 171.951 25.696C173.127 26.128 174.063 26.788 174.759 27.676C175.479 28.54 175.875 29.608 175.947 30.88L172.131 31.816C172.107 31.072 171.915 30.46 171.555 29.98C171.195 29.476 170.691 29.092 170.043 28.828C169.419 28.564 168.687 28.432 167.847 28.432C166.767 28.432 165.915 28.636 165.291 29.044C164.691 29.428 164.391 29.944 164.391 30.592C164.391 31.12 164.583 31.54 164.967 31.852C165.351 32.164 165.891 32.416 166.587 32.608C167.283 32.8 168.099 32.992 169.035 33.184C169.947 33.376 170.847 33.592 171.735 33.832C172.623 34.072 173.427 34.396 174.147 34.804C174.891 35.212 175.479 35.752 175.911 36.424C176.343 37.096 176.559 37.96 176.559 39.016C176.559 40.216 176.235 41.26 175.587 42.148C174.939 43.012 174.003 43.672 172.779 44.128C171.555 44.56 170.079 44.776 168.351 44.776Z" fill="white"/>
<path d="M135.65 44.308L130.826 25.516H135.614L138.602 40.564H139.106L142.454 25.516H147.854L151.202 40.564H151.67L154.73 25.516H159.338L154.55 44.308H148.322L145.262 29.656H144.83L141.806 44.308H135.65Z" fill="white"/>
<path d="M121.104 44.776C119.28 44.776 117.66 44.404 116.244 43.66C114.852 42.916 113.748 41.812 112.932 40.348C112.14 38.86 111.744 37.036 111.744 34.876C111.744 32.644 112.152 30.808 112.968 29.368C113.784 27.904 114.888 26.812 116.28 26.092C117.696 25.372 119.292 25.012 121.068 25.012C122.892 25.012 124.5 25.384 125.892 26.128C127.308 26.872 128.412 27.976 129.204 29.44C130.02 30.904 130.428 32.74 130.428 34.948C130.428 37.18 130.02 39.028 129.204 40.492C128.388 41.932 127.272 43.012 125.856 43.732C124.44 44.428 122.856 44.776 121.104 44.776ZM121.212 41.32C121.836 41.32 122.424 41.212 122.976 40.996C123.552 40.756 124.044 40.396 124.452 39.916C124.884 39.436 125.22 38.8 125.46 38.008C125.7 37.216 125.82 36.268 125.82 35.164C125.82 34.012 125.688 33.028 125.424 32.212C125.16 31.372 124.8 30.688 124.344 30.16C123.912 29.632 123.396 29.248 122.796 29.008C122.22 28.768 121.596 28.648 120.924 28.648C120.324 28.648 119.748 28.768 119.196 29.008C118.644 29.224 118.152 29.572 117.72 30.052C117.288 30.532 116.952 31.168 116.712 31.96C116.472 32.752 116.352 33.7 116.352 34.804C116.352 35.956 116.472 36.952 116.712 37.792C116.976 38.608 117.336 39.28 117.792 39.808C118.248 40.312 118.764 40.696 119.34 40.96C119.916 41.2 120.54 41.32 121.212 41.32Z" fill="white"/>
<path d="M99.4495 44.308V34.804V25.516H103.374L103.194 32.536H103.77C103.938 30.808 104.25 29.392 104.706 28.288C105.162 27.184 105.774 26.368 106.542 25.84C107.31 25.312 108.246 25.048 109.35 25.048C109.638 25.048 109.938 25.084 110.25 25.156C110.586 25.204 110.934 25.288 111.294 25.408L111.078 30.304C110.694 30.112 110.286 29.98 109.854 29.908C109.446 29.812 109.062 29.764 108.702 29.764C107.79 29.764 107.01 30.028 106.362 30.556C105.714 31.06 105.186 31.792 104.778 32.752C104.394 33.712 104.142 34.864 104.022 36.208V44.308H99.4495Z" fill="white"/>
<path d="M89.495 44.776C88.319 44.776 87.299 44.536 86.435 44.056C85.571 43.576 84.863 42.892 84.311 42.004C83.783 41.092 83.399 39.988 83.159 38.692H82.619L82.727 44.308H78.803V35.632V19H83.375V24.76C83.375 25.384 83.339 26.056 83.267 26.776C83.195 27.472 83.099 28.204 82.979 28.972C82.883 29.716 82.763 30.496 82.619 31.312H83.195C83.483 30.016 83.891 28.9 84.419 27.964C84.947 27.028 85.643 26.308 86.507 25.804C87.371 25.3 88.403 25.048 89.603 25.048C91.115 25.048 92.423 25.444 93.527 26.236C94.655 27.028 95.519 28.156 96.119 29.62C96.743 31.084 97.055 32.848 97.055 34.912C97.055 37 96.743 38.776 96.119 40.24C95.495 41.704 94.619 42.832 93.491 43.624C92.363 44.392 91.031 44.776 89.495 44.776ZM88.055 41.032C88.943 41.032 89.699 40.78 90.323 40.276C90.971 39.772 91.463 39.064 91.799 38.152C92.159 37.24 92.339 36.184 92.339 34.984C92.339 33.784 92.171 32.728 91.835 31.816C91.499 30.88 91.019 30.148 90.395 29.62C89.771 29.092 89.003 28.828 88.091 28.828C87.467 28.828 86.903 28.948 86.399 29.188C85.895 29.428 85.451 29.752 85.067 30.16C84.707 30.568 84.395 31.036 84.131 31.564C83.867 32.068 83.663 32.596 83.519 33.148C83.399 33.676 83.339 34.204 83.339 34.732V35.2C83.339 35.872 83.435 36.556 83.627 37.252C83.843 37.924 84.143 38.548 84.527 39.124C84.935 39.7 85.427 40.168 86.003 40.528C86.603 40.864 87.287 41.032 88.055 41.032Z" fill="white"/>
<path d="M51.4669 44.308V33.4V25.516H55.3549L55.1749 32.14H55.7149C55.9789 30.412 56.3989 29.032 56.9749 28C57.5749 26.944 58.3189 26.188 59.2069 25.732C60.0949 25.252 61.1269 25.012 62.3029 25.012C63.3829 25.012 64.2949 25.204 65.0389 25.588C65.7829 25.948 66.3949 26.452 66.8749 27.1C67.3549 27.724 67.7269 28.432 67.9909 29.224C68.2789 30.016 68.4709 30.844 68.5669 31.708C68.6629 32.572 68.7109 33.412 68.7109 34.228V44.308H64.1749V34.768C64.1749 34.264 64.1389 33.688 64.0669 33.04C64.0189 32.368 63.8869 31.72 63.6709 31.096C63.4549 30.472 63.1189 29.956 62.6629 29.548C62.2069 29.14 61.5589 28.936 60.7189 28.936C59.7109 28.936 58.8589 29.26 58.1629 29.908C57.4909 30.532 56.9629 31.432 56.5789 32.608C56.2189 33.76 56.0389 35.116 56.0389 36.676V44.308H51.4669Z" fill="white"/>
<path d="M41.0063 44.776C39.4463 44.776 38.0783 44.56 36.9023 44.128C35.7263 43.672 34.7423 43.024 33.9503 42.184C33.1583 41.344 32.5583 40.336 32.1503 39.16C31.7423 37.984 31.5383 36.676 31.5383 35.236C31.5383 33.796 31.7303 32.452 32.1143 31.204C32.5223 29.956 33.1103 28.876 33.8783 27.964C34.6463 27.028 35.5943 26.308 36.7223 25.804C37.8743 25.276 39.1823 25.012 40.6463 25.012C42.0623 25.012 43.3103 25.252 44.3903 25.732C45.4703 26.188 46.3703 26.872 47.0903 27.784C47.8103 28.696 48.3263 29.812 48.6383 31.132C48.9743 32.428 49.0823 33.904 48.9623 35.56L34.4543 35.74V33.076L46.0103 32.932L44.7503 34.444C44.8703 33.148 44.7623 32.08 44.4263 31.24C44.1143 30.376 43.6343 29.728 42.9863 29.296C42.3383 28.864 41.5703 28.648 40.6823 28.648C39.6743 28.648 38.8103 28.912 38.0903 29.44C37.3943 29.944 36.8543 30.676 36.4703 31.636C36.1103 32.596 35.9303 33.748 35.9303 35.092C35.9303 37.204 36.3743 38.776 37.2623 39.808C38.1503 40.84 39.4103 41.356 41.0423 41.356C41.7623 41.356 42.3623 41.26 42.8423 41.068C43.3463 40.852 43.7543 40.588 44.0663 40.276C44.4023 39.94 44.6543 39.568 44.8223 39.16C45.0143 38.752 45.1343 38.332 45.1823 37.9L49.2503 38.548C49.1303 39.436 48.8783 40.264 48.4943 41.032C48.1103 41.776 47.5823 42.436 46.9103 43.012C46.2383 43.564 45.4103 43.996 44.4263 44.308C43.4663 44.62 42.3263 44.776 41.0063 44.776Z" fill="white"/>
<path d="M15 44.308V40.42L24.864 29.62V29.224H15.18V25.516H30.552V29.332L20.616 40.204V40.564H30.66V44.308H15Z" fill="white"/>
</svg>
