<?xml version="1.0" encoding="UTF-8"?><svg id="e" xmlns="http://www.w3.org/2000/svg" xmlns:xlink="http://www.w3.org/1999/xlink" viewBox="0 0 256 256"><defs><style>.h{fill:#000;}.h,.i,.j,.k{stroke-width:0px;}.i{fill:url(#g);}.l{stroke-miterlimit:10;}.l,.m{fill:none;stroke:#fff;stroke-linecap:round;stroke-width:12px;}.m{stroke-linejoin:round;}.j{fill:url(#f);}.k{fill:#fff;}</style><linearGradient id="f" x1="676.6726" y1="141.3615" x2="776.6726" y2="141.3615" gradientTransform="translate(64.638 932.6726) rotate(-90)" gradientUnits="userSpaceOnUse"><stop offset=".1" stop-color="#fff" stop-opacity=".02"/><stop offset=".9" stop-color="#fff" stop-opacity=".1"/></linearGradient><linearGradient id="g" x1="128" y1="256" x2="128" y2="0" gradientTransform="matrix(1,0,0,1,0,0)" xlink:href="#f"/></defs><circle class="h" cx="205.9996" cy="206" r="50"/><circle class="j" cx="205.9996" cy="206" r="50"/><path class="h" d="M256,58.3999v103.01c-12.26-13.75-30.1201-22.4099-50-22.4099-21.78,0-41.1401,10.3999-53.3799,26.5-7.98,10.51-12.9302,23.4399-13.55,37.5-.05,1-.0701,2-.0701,3,0,19.8799,8.6599,37.74,22.4099,50H58.3999c-32.25,0-58.3999-26.1401-58.3999-58.3999V58.3999C0,26.1499,26.1499,0,58.3999,0h139.2002c32.25,0,58.3999,26.1499,58.3999,58.3999Z"/><path class="i" d="M256,58.3999v103.01c-12.26-13.75-30.1201-22.4099-50-22.4099-21.78,0-41.1401,10.3999-53.3799,26.5-7.98,10.51-12.9302,23.4399-13.55,37.5-.05,1-.0701,2-.0701,3,0,19.8799,8.6599,37.74,22.4099,50H58.3999c-32.25,0-58.3999-26.1401-58.3999-58.3999V58.3999C0,26.1499,26.1499,0,58.3999,0h139.2002c32.25,0,58.3999,26.1499,58.3999,58.3999Z"/><line class="l" x1="205.9996" y1="179.7248" x2="205.9996" y2="232.2833"/><polyline class="m" points="226.4114 211.8714 205.9996 232.2833 185.5877 211.8714"/><path class="k" d="M152.6201,165.5c-7.98,10.51-12.9302,23.4399-13.55,37.5h-25.78c-3.5901,0-5.8501-3.8799-4.0801-7,4.6802-8.24,13.8301-21.7,27.3701-29.29,1.4099-.79,3-1.21,4.6199-1.21h11.4202Z"/><path class="k" d="M146.7857,60.0033c-4.6807,8.2358-13.8242,21.7046-27.3685,29.2915-1.4099.7897-2.9972,1.2105-4.6131,1.2105h-42.7404c-10.2813,0-18.8827-8.1483-19.0541-18.4281-.1752-10.5011,8.2846-19.0685,18.7456-19.0685h70.9504c3.5905,0,5.8543,3.873,4.0802,6.9945Z"/><path class="k" d="M71.7479,203c-2.3912,0-4.8206-.46-7.1672-1.4319-9.5664-3.9623-14.1093-14.9297-10.1469-24.4958,6.0942-14.7123,14.829-27.902,25.9628-39.2024,11.5338-11.707,25.1358-20.8546,40.4287-27.1891,21.0205-8.7074,37.3921-25.0786,46.0983-46.0983,3.9623-9.5664,14.9301-14.1085,24.4958-10.1469,9.5664,3.9623,14.1093,14.9297,10.1469,24.4958-6.0942,14.7123-14.829,27.902-25.9628,39.2024-11.5338,11.707-25.1358,20.8546-40.4287,27.1891-21.0205,8.7074-37.3921,25.0786-46.0983,46.0983-2.9904,7.2198-9.9722,11.5788-17.3286,11.5788Z"/></svg>